<svg xmlns="http://www.w3.org/2000/svg" viewBox="0 0 80 80" width="30px" height="30px"><path fill="#8bb7f0" d="M3.5 66.563L3.5 41.5 32.5 41.5 32.5 70.481z"/><path fill="#4e7ab5" d="M32,42v27.91L4,66.126V42H32 M33,41H3v26l30,4.054V41L33,41z"/><path fill="#8bb7f0" d="M35.5 70.888L35.5 41.5 76.5 41.5 76.5 76.428z"/><path fill="#4e7ab5" d="M76,42v33.856L36,70.45V42H76 M77,41H35v30.324L77,77V41L77,41z"/><g><path fill="#8bb7f0" d="M3.5 38.5L3.5 13.437 32.5 9.519 32.5 38.5z"/><path fill="#4e7ab5" d="M32,10.09V38H4V13.874L32,10.09 M33,8.946L3,13v26h30V8.946L33,8.946z"/></g><g><path fill="#8bb7f0" d="M35.5 38.5L35.5 9.112 76.5 3.572 76.5 38.5z"/><path fill="#4e7ab5" d="M76,4.144V38H36V9.55L76,4.144 M77,3L35,8.676V39h42V3L77,3z"/></g></svg>